<svg xmlns="http://www.w3.org/2000/svg" width="429" height="46" viewBox="0 0 370 40">
  <g fill="#111">
    <path d="M0 28.451s9.049-5.549 12.378-6.83c3.33-1.28 5.293-1.962 8.537-4.438 3.329-2.561 7.512-7.768 8.963-8.878 1.451-1.024 1.451-.683 4.183-1.622 3.415-1.195 8.11-8.366 9.902-6.317 1.025 1.28 3.756 9.134 4.952 5.89.512-1.366 1.622-3.585 2.731-2.732 1.195.94.94.769 2.134 5.122 1.196 4.354 1.708 4.098 3.244 5.634 1.622 1.452.427.769 2.134 4.183 1.793 3.415 5.293 7.256 6.574 9.305a145.923 145.923 0 0 0 1.792 3.159c-3.756-1.195-10.841-3.244-19.036-4.61-.768-1.451-.854-3.841-1.025-4.695-.683-3.415-5.122-2.39-3.585-5.207.512-1.11 7.598-7.598 5.207-7.256-1.45.256-4.012.768-4.524 1.024-7.256 3.073 1.707-7.17-5.634-4.012-.683.341-2.646 0-3.842 1.28-1.11 1.28-2.646-.256-4.012 1.28-1.366 1.537-.512 2.22-2.732 4.013-2.134 1.793-2.048 1.878-3.926 3.158-1.793 1.28-2.05 3.074-3.671 3.671-1.537.598-4.524 2.049-5.549 2.049-1.11 0-5.378 2.56-5.89 3.073C8.878 25.293 0 28.451 0 28.451z"/>
    <path d="M2.988 30.415s18.097-4.866 34.658-3.671C54.122 27.939 70 33.658 70 33.658l-6.146 1.622c-13.317-5.036-27.061-6.573-27.061-6.573s13.146 4.183 20.744 8.28l-10.33 2.647s-10.67-6.402-17.841-8.451c-7.085-2.049-26.378-.768-26.378-.768z"/>
  </g>
  <path fill="#111" d="M93.49 37.674c.052.718-.102.718-.718.667-.668.051-1.386 0-2.053 0h-.36c-.154 0-.359.051-.359-.154 0-1.745.103-3.542.103-5.338-.052-9.65-.103-19.403-.052-29.053 1.9-.975 4.928-.924 6.981-1.283 1.489-.102 2.977-.205 4.414-.205 5.544 0 11.036 1.027 16.58 1.386 3.695.102 7.648.256 11.138-1.13.719-.102.719 2.156.873 2.67-1.18 1.386-4.21 1.796-7.802 1.796-5.903 0-13.295-1.18-16.374-1.334h.051c-3.747-.103-7.545-.308-11.138.616-.154.051-.36.102-.565.205h.051c-.308.051-.616.205-.872.36 0 3.9.051 7.75.051 11.651 3.747.051 7.443.103 11.19.103.102 0 .308-.052.36.102-.052.975.307 2.259-.052 3.08a851.485 851.485 0 0 0-11.498-.103 551.61 551.61 0 0 1 .051 15.964zm35.263 1.283c-.82-.051-1.745.103-2.566-.103-2.002-1.59-2.618-4.157-3.747-6.365 0-.05-.051-.102-.051-.154-1.078-2.104-2.67-4.055-4.825-5.03-1.335-.564-2.926-.154-4.363-.41.102 3.747-.052 7.442-.052 11.138 0 .154 0 .41-.205.257-.257.308-.872 0-1.283.102a7.65 7.65 0 0 1-1.078-.102c-.154-.052-.513.051-.462-.154.205-8.778 0-17.504.103-26.28.051-.309-.206-1.027.359-.925 2.361 0 4.722-.051 7.032.052 2.002 0 4.106.359 5.698 1.693 1.847 1.386 3.028 3.85 3.028 6.16v.667c-.051.36-.051.719-.103 1.078-.359 2.002-1.488 3.901-3.182 5.03-.051.052-.154.103-.205.154-.206.103-.36.206-.514.308-.41.154-.77.308-1.18.462.154.103.308.154.462.308 2.926 1.95 3.9 5.492 5.287 8.52.05.052.05.052.05.103.258.411.463.822.77 1.181.514.667.976 1.283 1.592 1.745.154.154.616.257.513.462-.308.154-.718.052-1.078.103zm-15.039-14.732a33.973 33.973 0 0 0 3.234 0c1.078 0 2.258-.05 3.234-.462.153-.05.359-.102.564-.205.154-.103.257-.154.308-.205 1.078-.616 1.95-1.694 2.207-2.875.257-1.129.154-2.31-.154-3.387-.051-.206-.102-.41-.205-.565-.051-.154-.154-.308-.257-.462-.667-1.13-2.412-2.412-3.695-2.412-1.848-.257-3.747-.154-5.595-.103-.052 3.593-.257 7.135-.154 10.677h.513zm-1.027 2.67v.154-.154zm16.631 11.497h.051-.05zm28.385-12.832c-2.874 2.874-6.006 4.312-10.06 4.312-4.158 0-7.751-1.797-10.523-4.877l-.051-.05c-2.105-2.516-3.337-5.852-3.337-9.138 0-3.13 1.13-6.005 3.029-8.469.154-.154.256-.36.41-.513l.154-.154c.103-.154.257-.257.41-.41C140.663 3.334 143.742 2 148.003 2h.051c.616 0 1.18.051 1.797.103 6.005.82 11.087 6.056 11.703 12.113.051.36.102.719.102 1.027v.051c0 .205.052.462.052.719 0 3.387-1.232 6.519-3.49 9.034-.155.205-.36.359-.514.513zm-11.652.41c.514.103 1.027.103 1.489.103 5.184 0 9.342-3.182 10.266-8.264 0-.256.05-.462.05-.718.052-.308.052-.616.052-.976v-.513c.052-5.851-4.876-9.958-10.42-9.958-5.646 0-9.957 4.723-9.957 10.317 0 .976.154 1.951.41 2.875.821 3.798 4.312 6.621 8.11 7.135zm1.848 12.371c-.924.308-1.591-1.386-2.361-1.797-.257-.975 1.386-1.642 1.796-2.463.924-.308 1.592 1.334 2.31 1.796.36.924-1.334 1.643-1.745 2.464zm39.216-6.827c-1.181 4.928-5.698 7.289-10.215 7.289-5.133 0-10.214-3.08-10.266-8.88a41.956 41.956 0 0 1 3.593 0c.616 1.848 1.18 3.439 3.131 4.568 1.13.616 2.464.924 3.799.924 2.515 0 5.133-1.078 6.313-3.285 2.002-4.466-.77-8.623-5.39-9.496-3.438-.872-7.288-1.386-9.65-4.311-1.129-1.284-1.745-2.926-1.899-4.62-.975-6.827 4.312-11.395 10.42-11.395 1.027 0 2.002.103 3.029.36 3.798.718 7.545 4.67 7.289 8.52-1.232.103-2.413.051-3.645 0-.718-2.618-2.31-4.98-5.44-5.338-9.445-1.592-11.91 10.42-2.619 12.575 1.54.462 3.132.719 4.62 1.18 5.39 1.13 8.315 6.725 6.93 11.91zm-14.783-14.218zm11.343 15.04v-.103c0 .051-.05.103-.05.103h.05zm19.044 5.954c-.822.205-2.002.154-2.926.205-.565-10.728.102-21.866-.103-32.697-2.874-.051-5.749-.102-8.623-.051-.257-.051-.154-.616-.205-.873 0-.308-.052-.667-.052-.975 0-.257 0-.513.052-.77.205-.975 2.001-.36 2.823-.564 5.954-.052 12.01.05 17.862.154.154.924.103 2.001.154 2.925-2.72.462-5.954.103-8.828.206.102 10.779-.052 21.66-.154 32.44zm16.887-.052c-.975-.051-2.567.36-3.337-.205.103-9.188.206-18.376.154-27.615 0-2.618 0-5.236.103-7.853.873-.154 2.156-.154 2.977.05.41.36.719.873 1.13 1.387a81.968 81.968 0 0 1 2.566 3.336c.975 1.283 2.002 2.515 2.977 3.799.205.205.36.462.565.667h-.052c.514.616.975 1.283 1.489 1.899l2.926 3.747c.462.616.975 1.232 1.437 1.848 1.95-2.515 3.952-4.98 5.851-7.494 1.18-1.489 2.413-2.977 3.542-4.517.41-.616.924-1.18 1.386-1.797.41-.513.77-1.026 1.18-1.54.36-.462.668-.975 1.13-1.385.872-.206 2.104-.206 2.977-.052.102 2.618.102 5.236.102 7.854-.051 8.88 0 17.708.154 26.588v1.078c-.77.513-2.36.103-3.336.154-.565-5.749.051-11.96-.205-17.863 0-3.85-.103-7.75-.052-11.6-2.463 3.08-4.876 6.21-7.288 9.29-.206.257-.36.514-.565.77v-.05c-.924 1.282-4.62 5.286-4.62 5.286-.41.513-4.26-4.106-5.081-5.235-.206-.206-.36-.462-.565-.719-2.412-3.08-4.825-6.21-7.289-9.29.052 3.85-.05 7.75-.05 11.6-.258 5.903.358 12.113-.206 17.862zm25.921-19.145v.359-.36zm-15.04 2.874-.205-.257c.052.052.103.154.206.257zm15.091 16.015h.052c-.052-.103-.052-.206-.052-.308v.308zM278.84 25.56c-2.875 2.874-6.006 4.312-10.06 4.312-4.158 0-7.752-1.797-10.523-4.877l-.052-.05c-2.104-2.516-3.336-5.852-3.336-9.138 0-3.13 1.13-6.005 3.028-8.469.154-.154.257-.36.411-.513l.154-.154c.103-.154.257-.257.41-.41C261.799 3.334 264.879 2 269.139 2h.052c.616 0 1.18.051 1.796.103 6.006.82 11.087 6.056 11.703 12.113.052.36.103.719.103 1.027v.051c0 .205.051.462.051.719 0 3.387-1.232 6.519-3.49 9.034-.154.205-.36.359-.513.513zm-11.652.41c.513.103 1.027.103 1.489.103 5.184 0 9.341-3.182 10.265-8.264 0-.256.052-.462.052-.718.05-.308.05-.616.05-.976v-.513c.052-5.851-4.875-9.958-10.419-9.958-5.646 0-9.958 4.723-9.958 10.317 0 .976.154 1.951.41 2.875.822 3.798 4.313 6.621 8.11 7.135zm1.848 12.371c-.924.308-1.591-1.386-2.361-1.797-.257-.975 1.386-1.642 1.796-2.463.924-.308 1.591 1.334 2.31 1.796.36.924-1.335 1.643-1.745 2.464zm31.26-31.362c-.925.308-1.592-1.386-2.31-1.797-.36-.975 1.334-1.642 1.745-2.515.924-.308 1.59 1.386 2.36 1.848.257.924-1.385 1.643-1.796 2.464zm-1.079 32.03h-.462c-.256-.052-.564-.052-.872-.103-1.335-.154-2.67-.411-3.901-1.078a4.968 4.968 0 0 1-.565-.257l-.257-.154c-.05 0-.102 0-.154-.103h-.05c-.309-.205-.566-.359-.822-.564h-.052c-3.233-2.361-4.517-6.365-4.517-10.215v-3.182c0-.103-.05-.257-.05-.36 0-2.771.05-5.543.102-8.315V12.06c0-.102.051-.154.154-.205h.154c.513-.103 1.026-.103 1.591-.103.513 0 1.078 0 1.591.052.103 0 .308.051.308.205a.463.463 0 0 1 .052.257v.154c0 .872-.052 1.796-.052 2.669v.821c-.051 1.18-.051 2.361-.051 3.49-.051.103-.051.154-.051.206 0 .154.05.256.05.41 0 .052 0 .103-.05.154v4.62c0 .924-.052 1.848.05 2.772v.051c.052.36.104.667.155 1.027 0 .102.051.205.051.359.052.36.206.719.308 1.078.103.308.257.616.36.924.154.256.308.564.462.821.462.821 1.231 1.591 2.001 2.105.668.564 1.746 1.078 2.618 1.232h.051c.36.102.719.154 1.13.205h.102c.308 0 .616 0 .924.051h.668c.308-.051.616-.051.924-.051h.102c.36-.051.77-.103 1.13-.205.359-.052.667-.206 1.026-.308 1.694-.668 2.566-1.54 3.644-3.029a6.12 6.12 0 0 0 .41-.821c.309-.667.566-1.283.668-2.002h.052c0-.154 0-.257.05-.36 0-.359.052-.667.104-.975.102-.924.102-1.847.102-2.771v-1.078c-.051-1.078-.051-2.207-.051-3.285v-2.464c0-.667-.051-1.386-.051-2.104-.052-1.232-.052-2.362-.052-3.542v-.36c.052-.05.052-.154.154-.205.052-.051.103-.051.206-.051.513-.051 1.077-.051 1.59-.051s1.079 0 1.592.102a.547.547 0 0 1 .257.154v1.386c.05.41.05.873.05 1.283.052 2.31.104 4.671.104 6.981 0 .462-.052.924-.052 1.386v.719c0 .359-.051.718-.051 1.078v1.077c0 4.21-.924 8.213-4.517 10.83-.257.206-.462.36-.719.463 0 .051-.051.051-.102.102 0 0-.052.052-.154.052-.052.05-.103.05-.103.102-.308.103-.513.257-.821.41-1.54.72-3.234 1.028-4.877 1.13h-1.59zm22.02-.463c-.667.052-1.385.052-2.053.052 0 0-.051-.052-.102-.052-.154-2.104.05-4.311 0-6.416-.103-2.926-.103-5.903-.103-8.828v-3.234c-.103-2.31.051-4.62 0-6.93v.052c-.051-.924-.051-1.797-.051-2.67 0-2.566.05-5.132.205-7.647.975-.308 2.31-.206 3.388-.154 1.386 1.899 2.515 4.055 3.9 6.005 1.849 2.72 3.594 5.492 5.39 8.264l1.95 3.028c.257.36.463.668.72 1.027 1.18 1.797 2.258 3.696 3.49 5.492.256.41.564.822.821 1.232l.77 1.232c.462.616.821 1.283 1.232 1.9.102-4.826.154-9.65.154-14.476v-.256c-.154-3.645-.052-7.34-.103-10.985.103-.872-.154-1.847.051-2.669.36-.051.822-.051 1.181-.051.667 0 1.386-.051 2.053 0 .052 0 .052 0 .103.051.154 2.053-.052 4.26.051 6.416.103 2.875.052 5.852.052 8.778 0 1.078 0 2.155.05 3.233.052 2.31-.05 4.62 0 6.93 0 3.439 0 6.827-.153 10.266-.975.359-2.259.102-3.285.205-.103 0-.154-.051-.154-.154-4.055-6.93-8.213-13.859-12.627-20.583-.051-.051-.103-.154-.154-.205-1.9-2.772-3.696-5.595-5.492-8.418l-.103 7.802a197.666 197.666 0 0 0 0 7.802v.256c.103 3.696 0 7.34.051 11.036-.205 1.386.873 2.977-1.232 2.67zm39.78-.256c-.82.205-2.001.154-2.925.205-.565-10.728.102-21.866-.103-32.697-2.874-.051-5.749-.102-8.623-.051-.257-.051-.154-.616-.206-.873 0-.308-.05-.667-.05-.975 0-.257 0-.513.05-.77.206-.975 2.002-.36 2.824-.564 5.954-.052 12.01.05 17.862.154.154.924.103 2.001.154 2.925-2.72.462-5.954.103-8.829.206.103 10.779-.05 21.66-.154 32.44z"/>
</svg>
